<svg width="20" height="20" viewBox="0 0 20 20" fill="none" xmlns="http://www.w3.org/2000/svg">
<path d="M13.3333 1.66666H6.66667C3.75 1.66666 2.5 3.33332 2.5 5.83332V14.1667C2.5 16.6667 3.75 18.3333 6.66667 18.3333H13.3333C16.25 18.3333 17.5 16.6667 17.5 14.1667V5.83332C17.5 3.33332 16.25 1.66666 13.3333 1.66666ZM8.775 13.725C9.01667 13.9667 9.01667 14.3667 8.775 14.6083C8.65 14.7333 8.49167 14.7917 8.33333 14.7917C8.175 14.7917 8.01667 14.7333 7.89167 14.6083L6.225 12.9417C5.98333 12.7 5.98333 12.3 6.225 12.0583L7.89167 10.3917C8.13333 10.15 8.53333 10.15 8.775 10.3917C9.01667 10.6333 9.01667 11.0333 8.775 11.275L7.55 12.5L8.775 13.725ZM13.775 12.9417L12.1083 14.6083C11.9833 14.7333 11.825 14.7917 11.6667 14.7917C11.5083 14.7917 11.35 14.7333 11.225 14.6083C10.9833 14.3667 10.9833 13.9667 11.225 13.725L12.45 12.5L11.225 11.275C10.9833 11.0333 10.9833 10.6333 11.225 10.3917C11.4667 10.15 11.8667 10.15 12.1083 10.3917L13.775 12.0583C14.0167 12.3 14.0167 12.7 13.775 12.9417ZM15.4167 7.70832H13.75C12.4833 7.70832 11.4583 6.68332 11.4583 5.41666V3.74999C11.4583 3.40832 11.7417 3.12499 12.0833 3.12499C12.425 3.12499 12.7083 3.40832 12.7083 3.74999V5.41666C12.7083 5.99166 13.175 6.45832 13.75 6.45832H15.4167C15.7583 6.45832 16.0417 6.74166 16.0417 7.08332C16.0417 7.42499 15.7583 7.70832 15.4167 7.70832Z" fill="#52525B"/>
</svg>
