<svg width="22" height="22" viewBox="0 0 22 22" fill="none" xmlns="http://www.w3.org/2000/svg">
<path d="M17.4808 13.0533C17.215 13.3192 16.7933 13.3192 16.5367 13.0533C16.2708 12.7875 16.2708 12.3658 16.5367 12.1092C18.37 10.2758 18.37 7.29668 16.5367 5.47251C14.7033 3.64834 11.7242 3.63918 9.90001 5.47251C8.07584 7.30584 8.06667 10.285 9.90001 12.1092C10.1658 12.375 10.1658 12.7967 9.90001 13.0533C9.63417 13.3192 9.21251 13.3192 8.95584 13.0533C6.60001 10.6975 6.60001 6.86584 8.95584 4.51918C11.3117 2.17251 15.1433 2.16334 17.49 4.51918C19.8367 6.87501 19.8367 10.6975 17.4808 13.0533Z" fill="#F44336"/>
<path d="M4.51924 8.94666C4.78508 8.68083 5.20674 8.68083 5.46341 8.94666C5.72924 9.21249 5.72924 9.63416 5.46341 9.89083C3.63008 11.7242 3.63008 14.7033 5.46341 16.5275C7.29674 18.3517 10.2759 18.3608 12.1001 16.5275C13.9242 14.6942 13.9334 11.715 12.1001 9.89083C11.8342 9.62499 11.8342 9.20333 12.1001 8.94666C12.3659 8.68083 12.7876 8.68083 13.0442 8.94666C15.4001 11.3025 15.4001 15.1342 13.0442 17.4808C10.6884 19.8275 6.85674 19.8367 4.51008 17.4808C2.16341 15.125 2.16341 11.3025 4.51924 8.94666Z" fill="#F44336"/>
</svg>
